<svg width="370" height="122" viewBox="0 0 370 122" fill="none" xmlns="http://www.w3.org/2000/svg">
<path d="M29.28 78.9998H19.36L0 21.7198H11.84L24.56 38.9198L37.04 21.7198H48.96L29.28 78.9998Z" fill="url(#paint0_linear_917_49)"/>
<path d="M60.1875 36.5998V78.9998H49.1475V36.5998H60.1875ZM54.5875 22.0398C56.0275 22.0398 57.2275 22.5465 58.1875 23.5598C59.2008 24.5732 59.7075 25.7998 59.7075 27.2398C59.7075 28.6798 59.2008 29.9065 58.1875 30.9198C57.2275 31.8798 56.0275 32.3598 54.5875 32.3598C53.1475 32.3598 51.9208 31.8798 50.9075 30.9198C49.8942 29.9065 49.3875 28.6798 49.3875 27.2398C49.3875 25.7998 49.8942 24.5732 50.9075 23.5598C51.9208 22.5465 53.1475 22.0398 54.5875 22.0398Z" fill="url(#paint1_linear_917_49)"/>
<path d="M64.3951 4H75.4351L75.5025 41.3998C78.1158 37.6132 81.9825 35.7198 87.1025 35.7198C92.8092 35.7198 97.3158 38.0132 100.622 42.5998C103.556 46.6532 105.022 51.7199 105.022 57.7999C105.022 64.7332 103.129 70.2799 99.3425 74.4398C96.0358 78.0665 91.9558 79.8799 87.1025 79.8799C81.9292 79.8799 78.0625 78.0132 75.5025 74.2798V78.9998H64.4625L64.3951 4ZM84.7025 44.9198C81.8758 44.9198 79.6092 46.0932 77.9025 48.4398C76.2492 50.7332 75.4225 53.8799 75.4225 57.8799C75.4225 61.8265 76.2492 64.9465 77.9025 67.2399C79.5558 69.5332 81.8225 70.6798 84.7025 70.6798C87.5292 70.6798 89.7692 69.5332 91.4225 67.2399C93.1292 64.8932 93.9825 61.7732 93.9825 57.8799C93.9825 53.9332 93.1292 50.7865 91.4225 48.4398C89.7692 46.0932 87.5292 44.9198 84.7025 44.9198Z" fill="url(#paint2_linear_917_49)"/>
<path d="M143.224 60.6798H114.744C114.904 64.0932 115.437 66.5198 116.344 67.9598C117.89 70.3065 120.317 71.4798 123.624 71.4798C127.73 71.4798 130.477 69.7732 131.864 66.3598L135.544 76.2798C139.117 73.8265 132.288 78.5 135.544 76.2798C132.024 78.6798 127.89 79.8799 123.144 79.8799C116.69 79.8799 111.73 77.7198 108.264 73.3998C105.224 69.6132 103.704 64.6265 103.704 58.4398C103.704 50.9198 105.677 45.1065 109.624 40.9998C113.09 37.4798 117.65 35.7198 123.304 35.7198C127.624 35.7198 131.41 36.7865 134.664 38.9198C137.917 41.0532 140.237 44.0398 141.624 47.8798C142.744 50.8665 143.304 54.4665 143.304 58.6798C143.304 59.2132 143.277 59.8798 143.224 60.6798ZM131.784 53.3998C131.25 47.2132 128.397 44.1198 123.224 44.1198C118.37 44.1198 115.597 47.2132 114.904 53.3998H131.784Z" fill="url(#paint3_linear_917_49)"/>
<path d="M176.984 38.9998H165.944C165.57 33.1865 161.57 30.2798 153.944 30.2798C150.904 30.2798 148.477 30.8932 146.664 32.1198C144.904 33.3465 144.024 34.9998 144.024 37.0798C144.024 39.1065 144.77 40.6265 146.264 41.6398C147.757 42.6532 150.637 43.5598 154.904 44.3598L163.864 46.0398C169.144 47.0532 172.984 48.7865 175.384 51.2398C177.784 53.6932 178.984 57.1598 178.984 61.6398C178.984 67.7732 176.637 72.4398 171.944 75.6398C167.89 78.4665 162.424 79.8799 155.544 79.8799C147.704 79.8799 141.73 78.0665 137.624 74.4398C134.05 71.2932 132.104 66.9198 131.784 61.3198H143.224C143.65 67.3998 147.944 70.4398 156.104 70.4398C159.73 70.4398 162.557 69.7999 164.584 68.5199C166.664 67.1865 167.704 65.3732 167.704 63.0798C167.704 60.8398 166.877 59.1065 165.224 57.8799C163.624 56.6532 160.85 55.6665 156.904 54.9198L148.904 53.3998C143.09 52.3332 138.93 50.6532 136.424 48.3598C133.97 46.0132 132.744 42.6532 132.744 38.2798C132.744 32.3598 134.904 27.8798 139.224 24.8398C142.957 22.1732 148.024 20.8398 154.424 20.8398C162.157 20.8398 167.97 22.5998 171.864 26.1198C175.224 29.2132 176.93 33.5065 176.984 38.9998Z" fill="url(#paint4_linear_917_49)"/>
<path d="M193.544 40.7598V46.8398C196.104 42.1998 200.024 39.8798 205.304 39.8798C207.81 39.8798 210.264 40.4932 212.664 41.7198C215.117 42.9465 217.064 44.5465 218.504 46.5198C221.544 50.7332 223.064 55.9865 223.064 62.2798C223.064 69.0532 221.17 74.5198 217.384 78.6798C214.13 82.2532 210.104 84.0398 205.304 84.0398C200.077 84.0398 196.157 82.0398 193.544 78.0398V113.66L182.504 121.66V41.2398L193.544 40.7598ZM202.744 49.0798C199.97 49.0798 197.73 50.2798 196.024 52.6798C194.317 55.0265 193.464 58.1465 193.464 62.0398C193.464 65.8798 194.317 68.9732 196.024 71.3198C197.73 73.6665 199.97 74.8398 202.744 74.8398C205.517 74.8398 207.757 73.6665 209.464 71.3198C211.17 68.9732 212.024 65.8798 212.024 62.0398C212.024 58.1465 211.17 55.0265 209.464 52.6798C207.757 50.2798 205.517 49.0798 202.744 49.0798Z" fill="url(#paint5_linear_917_49)"/>
<path d="M226.84 22.5999L237.88 13.88V43.4799C240.867 38.8932 245 36.5999 250.28 36.5999C254.014 36.5999 257.16 37.6932 259.72 39.8799C262.654 42.2799 264.12 46.0932 264.12 51.3199V71.5599L253.08 79.8799V53.5599C253.08 48.4932 250.84 45.9599 246.36 45.9599C243.854 45.9599 241.8 46.7332 240.2 48.2799C238.654 49.8265 237.88 51.8265 237.88 54.2799V71.5599L226.84 79.8799V22.5999Z" fill="url(#paint6_linear_917_49)"/>
<path d="M304.98 59.7998H276.5C276.66 63.2132 277.194 65.6398 278.1 67.0798C279.647 69.4265 282.074 70.5998 285.38 70.5998C289.487 70.5998 292.234 68.8932 293.62 65.4798H304.5C303.274 69.6398 300.874 72.9465 297.3 75.3998C293.78 77.7998 289.647 78.9998 284.9 78.9998C278.447 78.9998 273.487 76.8398 270.02 72.5198C266.98 68.7332 265.46 63.7465 265.46 57.5598C265.46 50.0398 267.434 44.2265 271.38 40.1198C274.847 36.5998 279.407 34.8398 285.06 34.8398C289.38 34.8398 293.167 35.9065 296.42 38.0398C299.674 40.1732 301.994 43.1598 303.38 46.9998C304.5 49.9865 305.06 53.5865 305.06 57.7998C305.06 58.3332 305.034 58.9998 304.98 59.7998ZM293.54 52.5198C293.007 46.3332 290.154 43.2398 284.98 43.2398C280.127 43.2398 277.354 46.3332 276.66 52.5198H293.54Z" fill="url(#paint7_linear_917_49)"/>
<path d="M306.76 35.7198H317.8V43.7998C319.187 37.8265 323.134 34.8398 329.64 34.8398C330.654 34.8398 331.374 34.8398 331.8 34.8398L331.88 45.7198C330.547 45.4532 329.16 45.3198 327.72 45.3198C324.094 45.3198 321.587 45.9865 320.2 47.3198C318.6 48.8132 317.8 51.5065 317.8 55.3998V78.1198H306.76V35.7198Z" fill="url(#paint8_linear_917_49)"/>
<path d="M369.16 59.7998H340.68C340.84 63.2132 341.374 65.6398 342.28 67.0798C343.827 69.4265 346.254 70.5998 349.56 70.5998C353.667 70.5998 356.414 68.8932 357.8 65.4798H368.68C367.454 69.6398 365.054 72.9465 361.48 75.3998C357.96 77.7998 353.827 78.9998 349.08 78.9998C342.627 78.9998 337.667 76.8398 334.2 72.5198C331.16 68.7332 329.64 63.7465 329.64 57.5598C329.64 50.0398 331.614 44.2265 335.56 40.1198C339.027 36.5998 343.587 34.8398 349.24 34.8398C353.56 34.8398 357.347 35.9065 360.6 38.0398C363.854 40.1732 366.174 43.1598 367.56 46.9998C368.68 49.9865 369.24 53.5865 369.24 57.7998C369.24 58.3332 369.214 58.9998 369.16 59.7998ZM357.72 52.5198C357.187 46.3332 354.334 43.2398 349.16 43.2398C344.307 43.2398 341.534 46.3332 340.84 52.5198H357.72Z" fill="url(#paint9_linear_917_49)"/>
<circle cx="24.2402" cy="11" r="11" fill="#673AB7"/>
<defs>
<linearGradient id="paint0_linear_917_49" x1="186.043" y1="4" x2="183.198" y2="121.66" gradientUnits="userSpaceOnUse">
<stop stop-color="#2196F3"/>
<stop offset="1" stop-color="#673AB7"/>
</linearGradient>
<linearGradient id="paint1_linear_917_49" x1="186.043" y1="4" x2="183.198" y2="121.66" gradientUnits="userSpaceOnUse">
<stop stop-color="#2196F3"/>
<stop offset="1" stop-color="#673AB7"/>
</linearGradient>
<linearGradient id="paint2_linear_917_49" x1="186.043" y1="4" x2="183.198" y2="121.66" gradientUnits="userSpaceOnUse">
<stop stop-color="#2196F3"/>
<stop offset="1" stop-color="#673AB7"/>
</linearGradient>
<linearGradient id="paint3_linear_917_49" x1="186.043" y1="4" x2="183.198" y2="121.66" gradientUnits="userSpaceOnUse">
<stop stop-color="#2196F3"/>
<stop offset="1" stop-color="#673AB7"/>
</linearGradient>
<linearGradient id="paint4_linear_917_49" x1="186.043" y1="4" x2="183.198" y2="121.66" gradientUnits="userSpaceOnUse">
<stop stop-color="#2196F3"/>
<stop offset="1" stop-color="#673AB7"/>
</linearGradient>
<linearGradient id="paint5_linear_917_49" x1="186.043" y1="4" x2="183.198" y2="121.66" gradientUnits="userSpaceOnUse">
<stop stop-color="#2196F3"/>
<stop offset="1" stop-color="#673AB7"/>
</linearGradient>
<linearGradient id="paint6_linear_917_49" x1="186.043" y1="4" x2="183.198" y2="121.66" gradientUnits="userSpaceOnUse">
<stop stop-color="#2196F3"/>
<stop offset="1" stop-color="#673AB7"/>
</linearGradient>
<linearGradient id="paint7_linear_917_49" x1="186.043" y1="4" x2="183.198" y2="121.66" gradientUnits="userSpaceOnUse">
<stop stop-color="#2196F3"/>
<stop offset="1" stop-color="#673AB7"/>
</linearGradient>
<linearGradient id="paint8_linear_917_49" x1="186.043" y1="4" x2="183.198" y2="121.66" gradientUnits="userSpaceOnUse">
<stop stop-color="#2196F3"/>
<stop offset="1" stop-color="#673AB7"/>
</linearGradient>
<linearGradient id="paint9_linear_917_49" x1="186.043" y1="4" x2="183.198" y2="121.66" gradientUnits="userSpaceOnUse">
<stop stop-color="#2196F3"/>
<stop offset="1" stop-color="#673AB7"/>
</linearGradient>
</defs>
</svg>
