<svg width="372" height="122" viewBox="0 0 372 122" fill="none" xmlns="http://www.w3.org/2000/svg">
<path d="M29.28 79.0008H19.36L0 21.7208H11.84L24.56 38.9208L37.04 21.7208H48.96L29.28 79.0008Z" fill="url(#paint0_linear_917_49)"/>
<path d="M60.1875 36.6008V79.0008H49.1475V36.6008H60.1875ZM54.5875 22.0408C56.0275 22.0408 57.2275 22.5475 58.1875 23.5608C59.2008 24.5742 59.7075 25.8008 59.7075 27.2408C59.7075 28.6808 59.2008 29.9075 58.1875 30.9208C57.2275 31.8808 56.0275 32.3608 54.5875 32.3608C53.1475 32.3608 51.9208 31.8808 50.9075 30.9208C49.8942 29.9075 49.3875 28.6808 49.3875 27.2408C49.3875 25.8008 49.8942 24.5742 50.9075 23.5608C51.9208 22.5475 53.1475 22.0408 54.5875 22.0408Z" fill="url(#paint1_linear_917_49)"/>
<path d="M64.3951 4.00098H75.4351L75.5025 41.4008C78.1158 37.6141 81.9825 35.7208 87.1025 35.7208C92.8092 35.7208 97.3158 38.0141 100.622 42.6008C103.556 46.6541 105.022 51.7208 105.022 57.8008C105.022 64.7341 103.129 70.2808 99.3425 74.4408C96.0358 78.0674 91.9558 79.8808 87.1025 79.8808C81.9292 79.8808 78.0625 78.0141 75.5025 74.2808V79.0008H64.4625L64.3951 4.00098ZM84.7025 44.9208C81.8758 44.9208 79.6092 46.0941 77.9025 48.4408C76.2492 50.7341 75.4225 53.8808 75.4225 57.8808C75.4225 61.8274 76.2492 64.9474 77.9025 67.2408C79.5558 69.5341 81.8225 70.6808 84.7025 70.6808C87.5292 70.6808 89.7692 69.5341 91.4225 67.2408C93.1292 64.8941 93.9825 61.7741 93.9825 57.8808C93.9825 53.9341 93.1292 50.7874 91.4225 48.4408C89.7692 46.0941 87.5292 44.9208 84.7025 44.9208Z" fill="url(#paint2_linear_917_49)"/>
<path d="M143.224 60.6808H114.744C114.904 64.0941 115.437 66.5208 116.344 67.9608C117.89 70.3074 120.317 71.4808 123.624 71.4808C127.73 71.4808 130.477 69.7741 131.864 66.3608L135.544 76.2808C139.117 73.8274 132.288 78.5009 135.544 76.2808C132.024 78.6808 127.89 79.8808 123.144 79.8808C116.69 79.8808 111.73 77.7208 108.264 73.4008C105.224 69.6141 103.704 64.6274 103.704 58.4408C103.704 50.9208 105.677 45.1074 109.624 41.0008C113.09 37.4808 117.65 35.7208 123.304 35.7208C127.624 35.7208 131.41 36.7875 134.664 38.9208C137.917 41.0541 140.237 44.0408 141.624 47.8808C142.744 50.8675 143.304 54.4674 143.304 58.6808C143.304 59.2141 143.277 59.8808 143.224 60.6808ZM131.784 53.4008C131.25 47.2141 128.397 44.1208 123.224 44.1208C118.37 44.1208 115.597 47.2141 114.904 53.4008H131.784Z" fill="url(#paint3_linear_917_49)"/>
<path d="M176.261 32.0409H165.221C164.848 26.2276 160.848 23.3209 153.221 23.3209C150.181 23.3209 147.755 23.9342 145.941 25.1609C144.181 26.3876 143.301 28.0409 143.301 30.1209C143.301 32.1476 144.048 33.6676 145.541 34.6809C147.035 35.6942 149.915 36.6009 154.181 37.4009L163.141 39.0809C168.421 40.0942 172.261 41.8276 174.661 44.2809C177.061 46.7342 178.261 50.2009 178.261 54.6809C178.261 60.8142 175.915 65.4809 171.221 68.6809C167.168 71.5076 161.701 72.9209 154.821 72.9209C146.981 72.9209 141.008 71.1076 136.901 67.4809C133.328 64.3342 131.381 59.9609 131.061 54.3609C135.236 56.9283 137.564 58.4077 142.501 54.3609C142.928 60.4409 147.221 63.4809 155.381 63.4809C159.008 63.4809 161.835 62.8409 163.861 61.5609C165.941 60.2276 166.981 58.4142 166.981 56.1209C166.981 53.8809 166.155 52.1476 164.501 50.9209C162.901 49.6942 160.128 48.7076 156.181 47.9609L148.181 46.4409C142.368 45.3742 138.208 43.6942 135.701 41.4009C133.248 39.0542 132.021 35.6942 132.021 31.3209C132.021 25.4009 134.181 20.9209 138.501 17.8809C142.235 15.2142 147.301 13.8809 153.701 13.8809C161.435 13.8809 167.248 15.6409 171.141 19.1609C174.501 22.2542 176.208 26.5476 176.261 32.0409Z" fill="url(#paint4_linear_917_49)"/>
<path d="M193.544 40.7608V46.8408C196.104 42.2008 200.024 39.8808 205.304 39.8808C207.81 39.8808 210.264 40.4941 212.664 41.7208C215.117 42.9474 217.064 44.5474 218.504 46.5208C221.544 50.7341 223.064 55.9874 223.064 62.2808C223.064 69.0541 221.17 74.5208 217.384 78.6808C214.13 82.2541 210.104 84.0408 205.304 84.0408C200.077 84.0408 196.157 82.0408 193.544 78.0408V113.661L182.504 121.661V41.2408L193.544 40.7608ZM202.744 49.0808C199.97 49.0808 197.73 50.2808 196.024 52.6808C194.317 55.0275 193.464 58.1474 193.464 62.0408C193.464 65.8808 194.317 68.9741 196.024 71.3208C197.73 73.6674 199.97 74.8408 202.744 74.8408C205.517 74.8408 207.757 73.6674 209.464 71.3208C211.17 68.9741 212.024 65.8808 212.024 62.0408C212.024 58.1474 211.17 55.0275 209.464 52.6808C207.757 50.2808 205.517 49.0808 202.744 49.0808Z" fill="url(#paint5_linear_917_49)"/>
<path d="M226.84 22.6008L237.88 13.881V43.4808C240.867 38.8941 245 36.6008 250.28 36.6008C254.014 36.6008 257.16 37.6941 259.72 39.8808C262.654 42.2808 264.12 46.0941 264.12 51.3208V71.5608L253.08 79.8808V53.5608C253.08 48.4941 250.84 45.9608 246.36 45.9608C243.854 45.9608 241.8 46.7341 240.2 48.2808C238.654 49.8275 237.88 51.8275 237.88 54.2808V71.5608L226.84 79.8808V22.6008Z" fill="url(#paint6_linear_917_49)"/>
<path d="M304.98 59.8008H276.5C276.66 63.2141 277.194 65.6408 278.1 67.0808C279.647 69.4274 282.074 70.6008 285.38 70.6008C289.487 70.6008 292.234 68.8941 293.62 65.4808H304.5C303.274 69.6408 300.874 72.9474 297.3 75.4008C293.78 77.8008 289.647 79.0008 284.9 79.0008C278.447 79.0008 273.487 76.8408 270.02 72.5208C266.98 68.7341 265.46 63.7474 265.46 57.5608C265.46 50.0408 267.434 44.2274 271.38 40.1208C274.847 36.6008 279.407 34.8408 285.06 34.8408C289.38 34.8408 293.167 35.9074 296.42 38.0408C299.674 40.1741 301.994 43.1608 303.38 47.0008C304.5 49.9874 305.06 53.5874 305.06 57.8008C305.06 58.3341 305.034 59.0008 304.98 59.8008ZM293.54 52.5208C293.007 46.3341 290.154 43.2408 284.98 43.2408C280.127 43.2408 277.354 46.3341 276.66 52.5208H293.54Z" fill="url(#paint7_linear_917_49)"/>
<path d="M306.76 35.7208H317.8V43.8008C319.187 37.8274 323.134 34.8408 329.64 34.8408C330.654 34.8408 331.374 34.8408 331.8 34.8408L331.88 45.7208C330.547 45.4541 329.16 45.3208 327.72 45.3208C324.094 45.3208 321.587 45.9874 320.2 47.3208C318.6 48.8141 317.8 51.5074 317.8 55.4008V78.1208H306.76V35.7208Z" fill="url(#paint8_linear_917_49)"/>
<path d="M331.88 59.8008H360.36C360.2 63.2141 359.667 65.6408 358.76 67.0808C357.214 69.4274 354.787 70.6008 351.48 70.6008C347.374 70.6008 344.627 68.8941 343.24 65.4808H332.36C333.587 69.6408 335.987 72.9474 339.56 75.4008C343.08 77.8008 347.214 79.0008 351.96 79.0008C358.414 79.0008 363.374 76.8408 366.84 72.5208C369.88 68.7341 371.4 63.7474 371.4 57.5608C371.4 50.0408 369.427 44.2274 365.48 40.1208C362.014 36.6008 357.454 34.8408 351.8 34.8408C347.48 34.8408 343.694 35.9074 340.44 38.0408C337.187 40.1741 334.867 43.1608 333.48 47.0008C332.36 49.9874 331.8 53.5874 331.8 57.8008C331.8 58.3341 331.827 59.0008 331.88 59.8008ZM343.32 52.5208C343.854 46.3341 346.707 43.2408 351.88 43.2408C356.734 43.2408 359.507 46.3341 360.2 52.5208H343.32Z" fill="url(#paint9_linear_917_49)"/>
<circle cx="24.2402" cy="11.001" r="11" fill="#673AB7"/>
<defs>
<linearGradient id="paint0_linear_917_49" x1="0" y1="62.83" x2="369.24" y2="62.83" gradientUnits="userSpaceOnUse">
<stop stop-color="#673AB7"/>
<stop offset="0.365" stop-color="#2196F3"/>
<stop offset="0.64" stop-color="#4CAF50"/>
<stop offset="0.99" stop-color="#FF9800"/>
</linearGradient>
<linearGradient id="paint1_linear_917_49" x1="0" y1="62.83" x2="369.24" y2="62.83" gradientUnits="userSpaceOnUse">
<stop stop-color="#673AB7"/>
<stop offset="0.365" stop-color="#2196F3"/>
<stop offset="0.64" stop-color="#4CAF50"/>
<stop offset="0.99" stop-color="#FF9800"/>
</linearGradient>
<linearGradient id="paint2_linear_917_49" x1="0" y1="62.83" x2="369.24" y2="62.83" gradientUnits="userSpaceOnUse">
<stop stop-color="#673AB7"/>
<stop offset="0.365" stop-color="#2196F3"/>
<stop offset="0.64" stop-color="#4CAF50"/>
<stop offset="0.99" stop-color="#FF9800"/>
</linearGradient>
<linearGradient id="paint3_linear_917_49" x1="0" y1="62.83" x2="369.24" y2="62.83" gradientUnits="userSpaceOnUse">
<stop stop-color="#673AB7"/>
<stop offset="0.365" stop-color="#2196F3"/>
<stop offset="0.64" stop-color="#4CAF50"/>
<stop offset="0.99" stop-color="#FF9800"/>
</linearGradient>
<linearGradient id="paint4_linear_917_49" x1="0" y1="62.83" x2="369.24" y2="62.83" gradientUnits="userSpaceOnUse">
<stop stop-color="#673AB7"/>
<stop offset="0.365" stop-color="#2196F3"/>
<stop offset="0.64" stop-color="#4CAF50"/>
<stop offset="0.99" stop-color="#FF9800"/>
</linearGradient>
<linearGradient id="paint5_linear_917_49" x1="0" y1="62.83" x2="369.24" y2="62.83" gradientUnits="userSpaceOnUse">
<stop stop-color="#673AB7"/>
<stop offset="0.365" stop-color="#2196F3"/>
<stop offset="0.64" stop-color="#4CAF50"/>
<stop offset="0.99" stop-color="#FF9800"/>
</linearGradient>
<linearGradient id="paint6_linear_917_49" x1="0" y1="62.83" x2="369.24" y2="62.83" gradientUnits="userSpaceOnUse">
<stop stop-color="#673AB7"/>
<stop offset="0.365" stop-color="#2196F3"/>
<stop offset="0.64" stop-color="#4CAF50"/>
<stop offset="0.99" stop-color="#FF9800"/>
</linearGradient>
<linearGradient id="paint7_linear_917_49" x1="0" y1="62.83" x2="369.24" y2="62.83" gradientUnits="userSpaceOnUse">
<stop stop-color="#673AB7"/>
<stop offset="0.365" stop-color="#2196F3"/>
<stop offset="0.64" stop-color="#4CAF50"/>
<stop offset="0.99" stop-color="#FF9800"/>
</linearGradient>
<linearGradient id="paint8_linear_917_49" x1="0" y1="62.83" x2="369.24" y2="62.83" gradientUnits="userSpaceOnUse">
<stop stop-color="#673AB7"/>
<stop offset="0.365" stop-color="#2196F3"/>
<stop offset="0.64" stop-color="#4CAF50"/>
<stop offset="0.99" stop-color="#FF9800"/>
</linearGradient>
<linearGradient id="paint9_linear_917_49" x1="0" y1="62.83" x2="369.24" y2="62.83" gradientUnits="userSpaceOnUse">
<stop stop-color="#673AB7"/>
<stop offset="0.365" stop-color="#2196F3"/>
<stop offset="0.64" stop-color="#4CAF50"/>
<stop offset="0.99" stop-color="#FF9800"/>
</linearGradient>
</defs>
</svg>
